# xmcd
#
# Track frame offsets: 
#        150
#        11128
#        25100
#        39602
#        50926
#        65672
#        74188
#        85186
#        97962
#        109672
#
# Disc length: 1670 seconds
#
# Revision: 0
# Processed by: cddbd v1.5.2PL0 Copyright (c) Steve Scherf et al.
# Submitted via: ExactAudioCopy v1.0b3
#
DISCID=8d06840a
DTITLE=Various Artist - Superstar Christmas: Classic Country
DYEAR=2009
DGENRE=Christmas
TTITLE0=Willie Nelson - Pretty Paper
TTITLE1=Dolly Parton and Kenny Rogers - White Christmas
TTITLE2=Alabama - O Little Town Of Bethlehem
TTITLE3=John Denver - Christmas For Cowboys
TTITLE4=Charlie Daniels - Christmas Time Down South
TTITLE5=George Jones - Joy To The World
TTITLE6=Tammy Wynette - Away In A Manger
TTITLE7=Merle Haggard - Rudolph The Red-Nosed Reindeer
TTITLE8=Johnny Cash - The Little Drummer Boy
TTITLE9=Elmo 'N Patsy - Grandma Got Run Over By A Reindeer
EXTD=
EXTT0=
EXTT1=
EXTT2=
EXTT3=
EXTT4=
EXTT5=
EXTT6=
EXTT7=
EXTT8=
EXTT9=
PLAYORDER=
